<svg xmlns="http://www.w3.org/2000/svg" viewBox="0 0 64 64" aria-labelledby="title"
aria-describedby="desc" role="img" xmlns:xlink="http://www.w3.org/1999/xlink">
  <title>Bookmark</title>
  <desc>A color styled icon from Orion Icon Library.</desc>
  <path data-name="layer3"
  d="M50 14H16a6 6 0 0 1 0-12h34z" fill="#ffffff"></path>
  <path data-name="opacity" d="M16 2a6 6 0 0 0-5.7 8A6 6 0 0 1 16 6h34V2z"
  fill="#000064" opacity=".15"></path>
  <path data-name="layer2" d="M10 8a6 6 0 0 0 6 6h38v48H18a8 8 0 0 1-8-8V8"
  fill="#809ac8"></path>
  <path data-name="layer1" fill="#9bafd3" d="M46 34l-7.9-6-8.1 6V10h16v24z"></path>
  <path data-name="opacity" fill="#000064" opacity=".15" d="M30 34V14h-4v24l8.1-6 7.9 6v-7l-3.9-3-8.1 6zM16 14a6 6 0 0 1-6-6v46a8 8 0 0 0 7 7.9V14z"></path>
  <path data-name="stroke" d="M46 14h8v48H18a8 8 0 0 1-8-8V8" fill="none"
  stroke="#2e4369" stroke-linecap="round" stroke-miterlimit="10" stroke-width="2"
  stroke-linejoin="miter"></path>
  <path data-name="stroke" fill="none" stroke="#2e4369" stroke-linecap="round"
  stroke-miterlimit="10" stroke-width="2" d="M46 34l-7.9-6-8.1 6V10h16v24z"
  stroke-linejoin="miter"></path>
  <path data-name="stroke" d="M30 14H16a6 6 0 0 1 0-12h34v12" fill="none"
  stroke="#2e4369" stroke-linecap="round" stroke-miterlimit="10" stroke-width="2"
  stroke-linejoin="miter"></path>
</svg>